<svg xmlns="http://www.w3.org/2000/svg" width="512" height="512" viewBox="0 0 512 512" version="1.1">
	<path d="M 208.186 120.562 C 199.606 122.871, 194.945 126.763, 166.395 155.461 C 129.720 192.326, 133.500 181.751, 133.500 247.500 C 133.500 313.695, 129.141 302.366, 169.537 341.150 C 210.431 380.412, 201.929 376.342, 244.951 377.253 C 307.967 378.588, 300 381.603, 340.729 341.006 C 380.798 301.067, 376.500 312.362, 376.500 247 C 376.500 180.947, 380.518 192.387, 344.598 156.166 C 315.629 126.953, 312.154 124.083, 301.875 120.884 C 293.837 118.382, 217.264 118.119, 208.186 120.562 M 160 245.185 C 160 285.605, 159.958 285.339, 166.545 286.574 C 175.064 288.173, 179.990 282.559, 179.996 271.250 C 180 264, 180 264, 187.822 264 C 206.632 264, 218.541 252.869, 218.388 235.431 C 218.216 215.883, 209.355 209.958, 179.250 209.262 C 160 208.816, 160 208.816, 160 245.185 M 228.970 211.876 C 221.142 219.705, 228.471 228, 243.218 228 C 250.500 228.001, 250.500 228.001, 250.500 254.583 C 250.500 283.600, 251.481 287.030, 259.766 286.985 C 269.679 286.932, 270.997 282.975, 270.998 253.250 C 271 225.236, 271.419 226.137, 261.597 233.017 C 255.055 237.599, 254 237.450, 254 231.941 C 254 228, 254 228, 265.750 227.994 C 286.918 227.984, 296.226 220.788, 287.006 211.560 C 283.101 207.651, 232.921 207.925, 228.970 211.876 M 296.500 210.155 C 284.156 216.906, 294.444 228, 313.049 228 C 319 228, 319 228, 319 253.596 C 319 281.755, 319.363 283.665, 325.171 286.071 C 336.496 290.762, 339 282.121, 339 238.340 C 339 227.065, 337.906 226.496, 328.666 232.969 C 323 236.938, 323 236.938, 323 232.469 C 323 228, 323 228, 332.750 227.864 C 346.345 227.674, 349.496 227.312, 352.904 225.550 C 359.366 222.208, 361.132 214.822, 356.365 211.073 C 353.306 208.666, 300.696 207.860, 296.500 210.155 M 180 236.392 C 180 246.989, 180.707 247.797, 188.810 246.458 C 197.369 245.044, 201 241.920, 201 235.969 C 201 229.322, 197.207 227, 186.351 227 C 180 227, 180 227, 180 236.392" stroke="none" fill="black" fill-rule="evenodd"/>
</svg>